<svg xmlns="http://www.w3.org/2000/svg" xml:space="preserve" width="1500" height="88" data-id="lg_tbOpjWkpFIjcXOni5U" data-version="1"><g data-padding="20"><g fill="#fff"><g stroke="#fff" transform="translate(10 1.636)scale(.96283)"><filter id="a" width="146%" height="166%" x="-23%" y="-33%"><feGaussianBlur in="SourceAlpha" stdDeviation="3"/><feOffset dx="3" dy="3" result="oBlur"/><feFlood flood-color="#000" flood-opacity="1"/><feComposite in2="oBlur" operator="in"/><feMerge><feMergeNode/><feMergeNode in="SourceGraphic"/></feMerge></filter><path stroke="none" d="M664.24 70.645h-13.58V7.385h13.58v25.79h28.11V7.385h13.58v63.26h-13.58v-26.01h-28.11Zm74.56 1.14q-6.98 0-12.54-3.03t-8.79-8.63-3.23-13.25q0-7.6 3.19-13.18 3.18-5.58 8.7-8.61 5.51-3.03 12.58-3.03 3.91 0 7.93 1.19 4.02 1.18 7.4 4.19 3.39 3.01 5.45 8.39 2.07 5.39 2.07 13.73h-38.92v-7.47h27.23l-1.36 2.33q-.35-4.74-1.76-7.64-1.4-2.9-3.56-4.22-2.15-1.32-4.83-1.32-3.47 0-5.8 1.98-2.32 1.98-3.49 5.51-1.16 3.54-1.16 8.2 0 7.02 2.65 11.11 2.66 4.09 8.15 4.09 3.56 0 6.13-1.85 2.57-1.84 3.93-5.62l11.86 3.03q-1.67 4.92-5.05 8.04t-7.75 4.59-9.03 1.47m44.34 0q-4.52 0-8.34-1.6-3.83-1.61-6.13-4.77-2.31-3.16-2.31-7.91 0-5.09 2.94-8.65 2.95-3.56 8.57-5.43 5.62-1.86 13.57-1.86h6.68l-.79 1.18v-2.72q0-4.7-1.71-7.01-1.72-2.3-5.67-2.3-3.78 0-5.78 2-1.99 1.99-2.43 5.68l-13.36-2.28q.75-3.95 3.41-7.14 2.65-3.18 7.35-5.07t11.56-1.89q6.28 0 10.63 2t6.61 6.48 2.26 11.99v16.12q0 1.5.42 1.98t1.78.48h2.15v9.58h-6.24q-5.14 0-7.79-2.57-2.66-2.57-2.66-7.4v-2.24l2.28.87q-.57 1.89-1.67 4.05-1.1 2.15-3.05 4.06t-4.94 3.14-7.34 1.23m3.78-8.96q3.07 0 5.45-1.41 2.37-1.4 3.73-4.24 1.36-2.83 1.36-7.05v-1.01h-5.53q-4.7 0-7.32 1.23-2.61 1.23-3.66 3.01-1.06 1.78-1.06 3.45 0 1.32.64 2.72.64 1.41 2.15 2.35 1.52.95 4.24.95m53.96 7.82h-7.99q-5.28 0-8.11-2.57t-2.83-7.4V4.745h13.09v53.86q0 1.45.42 1.96.41.5 1.77.5h3.65Zm32 0h-11.6q-5.27 0-8.1-2.57-2.84-2.57-2.84-7.4v-27.9h-6.76v-9.58h6.76v-9.31l13.09-3.16v12.47h8.79v9.58h-8.79v25.83q0 1.45.42 1.96.42.5 1.78.5h7.25Zm21.06 0h-13.09v-65.9h13.09v29.57l-.75-1.93q2.11-4.88 6.08-7.6 3.98-2.73 9.6-2.73 5.54 0 9.05 2.51 3.52 2.5 5.23 6.94 1.71 4.43 1.71 10.23v28.91h-13.09v-27.37q0-5.84-1.54-8.59-1.53-2.74-5.79-2.74-5.14 0-7.82 3.91t-2.68 11.73Zm53.12 0h-13.09v-47.45h13.09Zm-6.54-53.11q-3.91 0-6.28-2.37-2.38-2.38-2.38-6.29 0-3.95 2.38-6.3 2.37-2.35 6.28-2.35 3.95 0 6.3 2.35t2.35 6.3q0 3.91-2.35 6.29-2.35 2.37-6.3 2.37m32.83 53.11h-13.09v-54.52q0-5.88 2.99-8.63 2.98-2.75 9.66-2.75h9.4v9.58h-6.63q-1.36 0-1.85.53-.48.53-.48 1.93Zm8.92-37.87h-28.29v-9.58h28.29Zm21.49 55h-9.62v-9.58h7.95q.97 0 1.43-.39.46-.4.86-1.45l2.42-6.63-.75 4.74-20.65-51.27h14.63l12.26 38.31-1.28-.17 12.21-38.14h14.59l-22.05 56.76q-1.72 4.39-4.79 6.11-3.08 1.71-7.21 1.71" filter="url(#a)" font-family="Schibsted Grotesk" font-size="89.966"/></g><path d="M627.184 41.118h-17.55c-1.303 0-2.478.816-2.959 2.076l-2.18 5.724-12.087-31.702a3.17 3.321 0 0 0-5.902 0l-9.114 23.902h-12.498c2.845-8.333 2.887-17.407-.057-24.658-2.561-6.287-7.048-10.557-12.978-12.366a24.061 25.207 0 0 0-6.794-1.068c-8.096 0-13.248 4.805-16.15 8.882-2.915-4.077-8.067-8.896-16.163-8.896q-3.27 0-6.793 1.082c-5.93 1.809-10.417 6.08-12.98 12.366-3.537 8.689-2.787 20.017 1.968 29.537 7.813 15.657 31.081 33.88 32.072 34.651a3.17 3.321 0 0 0 3.78 0c.947-.741 22.517-17.644 31.123-32.887h17.607c1.302 0 2.477-.83 2.958-2.076l6.963-18.253 12.087 31.702a3.17 3.321 0 0 0 5.903 0l4.33-11.373h15.4a3.177 3.329 0 0 0 0-6.658m-98.268 32.665c-5.662-4.655-22.391-18.994-28.322-30.885-3.85-7.666-4.529-17.037-1.755-23.828a13.87 14.531 0 0 1 8.917-8.585q2.633-.8 5.01-.8c8.677 0 12.555 8.377 13.234 10.067a3.185 3.336 0 0 0 5.845 0c.68-1.69 4.558-10.083 13.22-10.083q2.392.015 5.038.816a13.87 14.531 0 0 1 8.903 8.6c2.76 6.776 2.08 16.147-1.755 23.828-5.93 11.891-22.674 26.244-28.335 30.885" vector-effect="non-scaling-stroke"/></g><path fill="transparent" stroke="transparent" d="M481 0h538v88H481z"/></g></svg>