<svg xmlns="http://www.w3.org/2000/svg" xml:space="preserve" width="1500" height="68" data-id="lg_tFLn8KvyIa1z30Z6RJ" data-version="1"><g data-padding="20"><path fill="#fffdfd" d="M641.077 12.717v48.816h-7.203V12.717Zm25.492 48.816V12.717h7.107v48.816Zm4.073-27.832v5.634h-33.301v-5.634Zm47.96 27.832h-34.69V12.717h33.822v6.24H691.02v14.831h20.82v5.98h-20.82V55.64h27.58Zm12.316 0h-7.637l16.391-48.816h11.884l16.738 48.816h-7.724l-14.83-45.782Zm27.225-14.561h-24.885l.26-5.73h24.279Zm24.365 13.868h-7.194V12.717h7.194Zm25.588.693h-32.782v-6.24h32.782Zm11.267-47.256h7.204v47.256h-7.204Zm22.208 4.68h-37.289v-6.24h37.289Zm14.127-6.24v48.816h-7.194V12.717ZM881.2 61.533V12.717h7.108v48.816Zm4.074-27.832v5.634h-33.302v-5.634Zm27.398 26.272h-7.107V14.277h7.107Zm6.597 1.56H898.89v-6.24h20.378Zm0-42.576H898.89v-6.24h20.378ZM938 38.728v22.805h-7.117V12.717h34.255v6.24H938v13.791h21.071v5.98Zm55.586 5.374h-6.943l-16.738-31.385h8.07l12.318 24.798 12.22-24.798h8.07Zm.173 17.431h-7.203V42.975h7.203Z" font-family="Darker Grotesque" font-size="90.047"/><path fill="#fff" d="M609.153 33.015h-15.405a2.79 2.79 0 0 0-2.596 1.74l-1.913 4.794-10.61-26.56a2.783 2.783 0 0 0-5.18 0l-8 20.026h-10.97c2.497-6.982 2.534-14.585-.05-20.66-2.248-5.267-6.187-8.845-11.392-10.36a21.1 21.1 0 0 0-5.963-.895c-7.106 0-11.628 4.025-14.175 7.441-2.559-3.416-7.08-7.454-14.187-7.454q-2.87 0-5.963.907c-5.205 1.516-9.143 5.094-11.392 10.361-3.106 7.28-2.447 16.771 1.727 24.747 6.857 13.119 27.281 28.387 28.15 29.033a2.78 2.78 0 0 0 3.318 0c.832-.621 19.765-14.784 27.318-27.555h15.454a2.805 2.805 0 0 0 2.597-1.739l6.112-15.293 10.61 26.56a2.783 2.783 0 0 0 5.18 0l3.801-9.528h13.517a2.789 2.789 0 0 0 0-5.578m-86.254 27.369c-4.97-3.901-19.653-15.914-24.859-25.878-3.379-6.423-3.975-14.274-1.54-19.964a12.18 12.18 0 0 1 7.826-7.193q2.311-.67 4.398-.67c7.615 0 11.02 7.018 11.616 8.435a2.795 2.795 0 0 0 5.13 0c.597-1.417 4-8.448 11.604-8.448q2.1.012 4.422.683a12.18 12.18 0 0 1 7.814 7.206c2.423 5.677 1.827 13.528-1.54 19.964-5.205 9.963-19.902 21.988-24.871 25.877" vector-effect="non-scaling-stroke"/><path fill="transparent" stroke="transparent" d="M479.5 0h541v68h-541z"/></g></svg>