<svg xmlns="http://www.w3.org/2000/svg" xml:space="preserve" width="1500" height="85" data-id="lg_OKZUiaCSZgIwKOQvtg" data-version="1"><g data-padding="20"><g transform="translate(10 1.6)scale(.96234)"><path fill="#fff" stroke="transparent" stroke-width=".74" d="M677.901 20.13v31.8q0 6.08-2.17 8.67-2.18 2.58-6.6 2.58-4.35 0-6.38-2.36-2.02-2.36-2.02-8.36l-.08-8.48h-15.3v7.95q0 6.15-2.1 8.7t-6.67 2.55q-4.35 0-6.38-2.36-2.02-2.36-2.02-8.36l-.23-31.65q0-4.65 2.37-6.83 2.36-2.17 6.26-2.17 4.5 0 6.64 1.65 2.13 1.65 2.13 6.67v12.6h15.23V20.81q0-3.15 1.16-5.21 1.16-2.07 3-2.93t4.39-.86q4.35 0 6.56 1.65t2.21 6.67m23.39 12.6h12.9q3.98 0 5.59 1.28 1.61 1.27 1.61 4.35 0 2.55-1.91 3.64-1.91 1.08-5.96 1.08h-12.15v7.95l16.27.08q4.2 0 6.04 1.24 1.84 1.23 1.84 4.38 0 3.6-2.14 5.03-2.14 1.42-6.49 1.42h-24.3q-4.42 0-6.48-2.36-2.07-2.36-2.07-8.36V20.81q0-9 8.55-9h24.3q4.35 0 6.49 1.35t2.14 4.87q0 3.3-1.84 4.62-1.84 1.31-6.04 1.31h-16.35Zm51.53-8.7q-3.23 0-4.77 1.88-1.53 1.87-1.53 6.67v8.85h12.45v-9q0-3.15-.75-5.06t-2.07-2.62q-1.31-.72-3.33-.72m6.15 31.73v-3.98h-12.45v3.98q0 3.82-2.03 5.62-2.02 1.8-6.97 1.8-2.1 0-3.45-.6t-2.36-2.02q-1.02-1.43-1.5-4.16-.49-2.74-.75-6.6-.27-3.87-.27-9.79 0-5.18 1.09-9.49t2.93-7.31q1.83-3 4.16-5.29 2.32-2.29 5.06-3.56 2.74-1.28 5.33-1.91 2.58-.64 5.21-.64 3.15 0 6.22.86 3.08.86 6.23 2.96t5.51 5.22q2.36 3.11 3.86 8.06t1.5 11.1q0 9.9-.71 14.66t-2.4 6.64q-1.69 1.87-5.21 1.87-4.95 0-6.98-1.8-2.02-1.8-2.02-5.62m51.07 7.42h-19.57q-3.45-.07-5.55-1.08-2.1-1.02-3.15-3.34-1.05-2.33-1.05-6.23V20.81q0-3.98 2.32-6.49 2.33-2.51 6.15-2.51 4.5 0 6.64 1.65t2.14 6.67v30.08h12.82q4.35 0 6.11 1.27 1.77 1.28 1.77 5.25 0 4.05-2.03 5.25-2.02 1.2-6.6 1.2m30.52-38.4v27.15q0 4.28-1.05 6.79t-2.89 3.49q-1.84.97-4.84.97-4.42 0-6.41-2.36t-2.06-8.36l-.15-27.68h-6.38q-4.72 0-7.08-1.5-2.37-1.5-2.37-5.32 0-2.33.94-3.68t2.81-1.91q1.88-.56 5.03-.56h32.1q4.2 0 6.07 1.5 1.88 1.5 1.88 5.17 0 2.48-1.09 3.87-1.09 1.38-2.89 1.91-1.8.52-4.65.52Zm69.31-4.65v31.8q0 6.08-2.18 8.67-2.17 2.58-6.6 2.58-4.35 0-6.37-2.36-2.03-2.36-2.03-8.36l-.07-8.48h-15.3v7.95q0 6.15-2.1 8.7t-6.68 2.55q-4.35 0-6.37-2.36-2.03-2.36-2.03-8.36l-.22-31.65q0-4.65 2.36-6.83 2.36-2.17 6.26-2.17 4.5 0 6.64 1.65t2.14 6.67v12.6h15.22V20.81q0-3.15 1.16-5.21 1.17-2.07 3-2.93 1.84-.86 4.39-.86 4.35 0 6.56 1.65 2.22 1.65 2.22 6.67m23.47 0v31.8q0 5.85-2.17 8.55-2.18 2.7-6.6 2.7-4.35 0-6.42-2.32-2.06-2.33-2.06-8.33V20.81q0-9 8.48-9 4.35 0 6.56 1.65t2.21 6.67m23.4 22.95v9.68q0 5.1-2.25 7.76t-6.52 2.66q-4.05 0-6.3-2.43-2.25-2.44-2.25-8.29V20.81q0-2.4.63-4.16.64-1.77 1.84-2.82t2.7-1.53q1.5-.49 3.38-.49h24.6q4.35 0 6.48 1.35 2.14 1.35 2.14 4.87 0 3.3-1.83 4.62-1.84 1.31-6.04 1.31h-16.58v8.77h13.2q2.03 0 3.42.3 1.38.3 2.25 1.02.86.71 1.19 1.72.34 1.01.34 2.59 0 2.55-1.87 3.64-1.88 1.08-6 1.08Zm58.43-2.4v11.25q0 6.08-2.18 8.67-2.17 2.58-6.67 2.58-4.35 0-6.38-2.36-2.02-2.36-2.1-8.36l-.07-12.15-11.55-13.5q-3.15-3.6-3.15-6.23 0-4.12 3.15-6.52 3-2.25 5.32-2.25 3.23 0 5.78 2.92l9.15 10.65 7.65-8.92q3.82-4.58 8.17-4.58 3.23 0 5.03 1.8 3.07 3.08 3.07 5.93 0 1.57-1.05 3.34-1.05 1.76-3.37 4.53Z"/><rect width="411" height="84.75" x="147.901" y="-367.535" fill="none" rx="0" ry="0" transform="translate(475.63 367.66)"/><path fill="#8bc53f" d="M620.016 41.234h-15.004c-1.113 0-2.118.594-2.529 1.512l-1.863 4.169-10.334-23.09a2.71 2.42 0 0 0-5.046 0l-7.792 17.409h-10.684c2.432-6.07 2.468-12.68-.049-17.96-2.19-4.58-6.025-7.69-11.095-9.008a20.57 18.36 0 0 0-5.808-.777c-6.922 0-11.326 3.499-13.806 6.469-2.493-2.97-6.897-6.48-13.819-6.48q-2.795 0-5.808.788c-5.07 1.318-8.905 4.428-11.095 9.008-3.025 6.328-2.384 14.58 1.682 21.513 6.679 11.405 26.571 24.678 27.418 25.24a2.71 2.42 0 0 0 3.23 0c.812-.54 19.252-12.852 26.609-23.955h15.052c1.113 0 2.118-.604 2.53-1.512l5.952-13.294 10.334 23.09a2.71 2.42 0 0 0 5.045 0l3.703-8.284h13.165a2.716 2.425 0 0 0 0-4.849m-84.01 23.793c-4.84-3.392-19.143-13.835-24.213-22.497-3.29-5.583-3.872-12.409-1.5-17.355a11.858 10.584 0 0 1 7.623-6.254q2.25-.583 4.283-.583c7.418 0 10.733 6.102 11.314 7.333a2.723 2.43 0 0 0 4.997 0c.581-1.23 3.896-7.344 11.302-7.344q2.044.011 4.307.594a11.858 10.584 0 0 1 7.611 6.264c2.36 4.936 1.779 11.762-1.5 17.356-5.07 8.662-19.385 19.116-24.225 22.496" vector-effect="non-scaling-stroke"/></g><path fill="transparent" stroke="transparent" d="M484.5 0h531v85h-531z"/></g></svg>